<svg width="302" height="188" viewBox="0 0 302 188" fill="none" xmlns="http://www.w3.org/2000/svg">
<path d="M162.637 29.3481L163.082 29.5071L163.806 29.7001L164.349 30.3019L165.047 30.8091L165.459 31.4109L165.742 31.9295L165.776 32.4139L166.149 33.0006L166.919 33.7727L167.398 34.2269L167.933 34.4918L168.409 34.8665L169.043 35.0634L169.39 35.0936L169.514 35.3775L169.861 35.5365L170.288 35.5705L170.54 35.0936L171.08 34.5865H171.461L172.219 34.6167L172.725 34.7416L173.581 35.3132L174.181 35.6954L174.792 35.9036L175.388 36.0815L176.109 36.2594L177.161 36.2707L177.901 36.4373L178.376 36.4713L178.795 36.706L179.127 37.005L179.516 37.3494L179.916 37.5955L180.512 38.1026L180.398 38.2124L179.795 39.1359L178.455 41.1873L177.361 42.0011L176.196 42.5688L175.241 43.2085L174.675 43.8822L174.536 45.7254L174.287 46.1493L174.038 46.7511L173.887 47.4476L173.823 47.7428L172.906 49.1962L171.951 49.586L171.035 50.0478L171.001 52.3869L170.506 53.0606L169.907 53.3785L169.858 54.0144L169.201 55.1233L168.484 56.4178L168.126 57.7841L167.767 59.3662L167.266 61.3079L166.621 62.9581L165.926 64.1503L164.614 64.0709L162.886 63.7454L161.644 63.5296L160.294 63.4199L159.053 64.0141L158.083 65.581L157.434 67.2615L156.842 69.5893L155.872 71.319L154.846 72.9994L154.793 75.2212L155.604 76.0842L156.359 77.7079L156.736 79.1688L156.789 80.3081L156.087 81.0121L154.144 81.1219L152.903 81.6593V83.0673L154.469 83.1203L156.412 83.4458L157.815 83.7713L158.087 84.8538L158.14 86.5343L158.841 88.264L159.701 89.7249L160.35 90.0504L162.078 90.5917L163.319 91.1329L164.289 92.5939L165.908 93.7294L166.123 95.5726L166.768 96.5491L166.624 97.0601L166.443 97.6884L165.527 98.0669L164.987 98.3924L164.5 99.2591L163.097 100.395L162.72 101.693L162.882 102.234L163.259 102.885L163.527 103.479L163.795 104.509L163.606 104.918L163.64 105.201L163.693 105.788L163.618 106.201L163.414 106.791L163.131 107.332L162.565 107.855L161.893 108.381L161.494 108.615L161.203 108.79L161.15 109.013L160.882 109.615L160.437 109.857L159.796 110.565L159.177 111.163L159.053 111.92L158.905 113.153L159.041 114.297L159.222 115.118L159.535 116.132L159.509 116.802L159.483 117.65L158.638 117.881L158.023 117.862L157.125 117.835L156.151 117.782L155.382 117.654L154.639 117.707L153.28 117.605L152.922 118.891L152.737 119.296L152.613 120.205L152.537 120.769L152.635 122.037L152.88 122.26L153.356 123.464L154.125 123.539L154.556 122.529L155.204 121.556L155.687 120.636L156.019 120.095L156.148 119.402L156.71 119.376L157.453 119.429L157.992 119.633L158.479 119.917L159.256 120.137L160.486 120.685L161.761 121.507L162.72 122.374L163.633 123.426L164.089 124.065L163.999 124.796L157.585 129.856H156.868L156.299 129.678L155.401 129.406L154.412 129.046L154.125 128.804L153.869 128.702L153.895 128.342L154.125 128.187V127.801L153.793 127.597L153.212 127.65L153.099 127.578L152.59 127.305L152.05 127.154L151.511 126.912L150.557 127.68L150.628 128.055L150.64 133.917L150.228 134.251L150.304 134.739L150.998 135.469L150.787 135.621L150.458 135.322L149.919 134.69L149.289 134.027L148.693 133.429L148.002 132.65L147.282 131.987L146.863 132.017L146.625 132.229L146.403 132.721L145.995 133.096L146.535 133.713L146.969 134.254L147.327 134.716L147.38 135.102H147.123L146.056 133.88L145.486 133.433L144.947 133.073L144.637 132.585L144.252 132.199L143.92 131.942L143.517 131.499L142.049 131.404L138.465 131.359L138.212 131.544L137.552 131.908L136.775 132.358L135.368 133.229L134.734 133.671L134.176 133.762L133.512 134.16H130.459L130.369 133.709L130.037 133.679L129.799 133.501L129.256 133.452L129.147 133.69L128.931 133.645L128.92 133.429L129.362 133.104L128.562 132.574L128.4 133.039L127.966 133.679L127.585 133.531L127.136 133.111L126.777 132.752L126.932 132.487L127.407 131.957L126.996 131.681L126.702 131.654L126.06 131.34L125.129 130.549L124.484 129.326L124.125 128.176L124.412 127.025L125.272 125.803L125.989 125.084L127.136 124.077L126.992 122.782L126.419 121.919L124.699 121.991L123.193 121.919L122.118 121.488L120.541 121.416L119.681 121.991L118.104 121.488L116.527 120.125L115.882 118.903L115.595 116.821L115.308 114.951L115.022 113.657L114.52 112.362L113.516 111.643L112.943 110.133L113.445 108.983L114.161 107.688L114.376 106.397L115.244 107.071L115.98 107.718L116.534 108.275L117.18 108.184L117.455 106.889L117.64 106.151L117.915 105.133V104.115L117.825 103.097L118.1 102.079L119.021 100.599L120.036 99.1191L120.866 98.1956L121.511 97.3629L122.341 97.1774L123.54 96.7157L124.461 95.5121V94.4031L124.921 92.9232L124.736 91.5341L125.197 90.6106L126.027 90.0542L126.672 89.2216L126.487 88.018L125.566 87.8325H124.461L123.261 87.0944L121.786 85.5237L120.311 84.2293L119.39 83.2111L117.915 82.193L117.546 80.6222L118.1 78.9569L119.206 77.5678L120.311 76.9206L121.231 75.6262L121.692 74.0554L123.627 72.3901L125.102 71.2811L126.302 70.3576L127.041 68.6014L127.777 66.3834L128.837 64.6689L129.384 62.4736L128.792 61.482L128.147 60.6493L127.777 59.3549L127.502 57.6895L127.687 55.5624V53.0644L127.132 50.8464L126.027 49.3665L125.106 47.7011L124.646 46.8685L125.291 46.0358L126.766 45.7595L128.426 45.574L129.716 44.5559L131.006 42.7997L132.112 40.5817L133.032 38.2692L133.587 36.4183L134.232 34.2912L135.338 32.8113L136.813 32.1641L139.208 32.4404L140.314 32.9022L141.513 34.1966L142.249 35.4002L143.449 36.7893L145.199 36.9747L146.765 36.1421L148.651 36.0966L149.232 35.8317L150.025 35.51L150.553 35.457L151.149 35.4646L150.972 35.9604L150.828 36.3502L150.511 36.8839L149.979 37.6636L149.413 38.1594L148.493 38.9769L147.538 39.4728L146.935 39.6847L146.086 40.2184L144.777 40.5363L143.468 41.0321L142.404 41.2441L141.242 41.4939L139.608 41.6718L139.042 42.0995L138.371 42.4212L138.193 43.2387L137.484 43.7005L137.235 44.1282L137.552 44.7678L137.763 45.2637L137.797 45.9752L137.869 46.331L138.186 46.5089L138.612 46.331L139.186 45.7027L139.623 45.1842L140.182 44.3666L140.461 43.4091L140.668 42.9587H141.57L143.694 43.0306L145.856 42.8527L147.025 42.3569L147.802 41.7172L147.946 41.6567L149.164 41.1343L150.477 40.858L150.972 40.2562L151.847 39.9383L152.194 39.5106L152.616 38.852L152.907 38.36L153.337 37.9929L153.62 37.7393L154.054 37.1943L154.612 36.6871L154.797 36.1004L154.876 35.2753L155.114 34.6357L155.461 34.1815L155.914 33.6743L156.366 33.4358L156.578 33.3299V32.8757L156.978 32.2095L157.378 31.0778L158.042 30.3322L158.389 30.1733L159.037 29.9575L159.26 29.8364H159.735L159.754 29.8023L160.06 29.5866L160.648 29.4693L161.09 29.4087L161.731 29.4806L162.229 29.3103L162.637 29.3481V29.3481ZM180.248 34.8249L179.814 35.1996L179.565 35.2299L179.255 35.0747L178.633 35.0444L177.701 35.1088L176.456 34.9839L175.4 34.8287L174.747 34.5486L174.124 34.1739L173.691 33.8938L172.974 33.7386L172.321 33.5532L172.257 33.3034L172.506 32.834L173.064 32.4291L173.498 31.8689L174.057 30.9946L174.739 30.2754L175.332 29.3406L175.924 29.3103L176.452 29.6547L177.633 30.3398L178.38 30.7751L179.157 31.3049L180.059 31.8992L180.617 32.3685L180.927 32.8984L180.862 33.2428L180.674 33.5872L180.549 34.2117L180.248 34.8249V34.8249ZM171.665 32.5464L171.072 33.2315L169.175 33.2012L168.522 32.7659L167.715 32.1414L167.122 31.4866L166.749 31.0173L166.47 30.548L165.972 30.1733L165.164 29.579L164.044 28.6744L163.297 28.2392L162.923 27.9894L162.954 27.3043L163.327 26.7101L164.229 26.1802L165.255 25.3361L165.938 24.9009L166.466 24.6511L168.299 24.5565L169.077 24.9312L170.91 25.9304L172.37 27.0242L173.924 28.084L174.268 28.3944L174.238 28.8296L172.993 30.6085L172.185 31.638L171.665 32.5464V32.5464Z" fill="#776363"/>
<path d="M201.058 41.7475L201.533 42.1449L202.035 42.531L202.22 42.9662L202.257 43.4961L202.178 43.7989L201.824 43.8935L201.427 43.7762L201.243 43.3902L200.862 43.0684L200.322 42.5272L200.016 42.3493L199.571 42.0957L199.096 41.8232H198.768L198.489 42.1298L198.33 42.5045L198.134 42.5007L197.881 42.3417L197.975 41.9708L198.202 41.7059L198.228 41.335L198.119 40.8013L197.602 40.3963L196.753 39.7302L196.236 39.5333L195.87 39.1056L195.75 38.4698L195.538 37.9929L195.312 37.7809L195.021 37.304L194.569 37.0467L194.324 36.812L193.875 36.706L193.72 36.3162L193.411 36.0285L192.939 35.756L192.528 35.3775L192.381 35.0066L192.407 34.6243L192.818 34.4805L193.173 34.5183L193.516 34.8098L193.912 35.1277L194.308 35.6727L194.52 36.2556L194.916 36.4524L195.723 36.7855L196.134 36.9596L196.663 37.2397L197.044 37.6636L197.662 38.2238L198.243 38.9656L198.719 39.5485L199.315 40.12L199.775 40.5969L200.424 41.2479L201.058 41.7475V41.7475ZM190.958 35.0634L191.117 35.8923L191.056 36.5281L190.898 37.1299V37.7014L191.087 38.1783L192.045 38.6287L193.622 40.067L195.84 42.2244L197.202 43.2274L199.066 44.5218L198.636 45.5248L196.629 46.7474L196.772 47.6103L197.27 48.2159L198.206 47.5384L199.998 46.5316L201.216 45.9563L202.435 45.8125L203.438 46.5316L204.37 47.4665L205.23 48.8291L205.947 50.4112L206.807 51.8494L207.883 52.2809L209.244 52.9281L210.448 54.1052L210.987 54.6767L211.685 55.2142L212.349 55.2445L212.889 55.7214L213.364 55.9106L213.711 56.2286L214.156 56.5124L214.726 56.5427L215.424 56.925L216.152 56.8947L216.692 57.0537L216.911 57.6252L216.816 58.0718L217.227 58.2913L217.258 58.0075L217.544 57.4057H217.922H218.269L218.521 57.7841L218.933 57.5608L219.216 57.4662L219.627 57.6895L220.197 57.7841H221.083L221.494 57.4359L222.128 57.3413L222.698 57.1824L223.203 57.0234L223.679 56.9288L224.248 57.1218L224.818 57.5646L225.184 57.6668L225.81 57.7577L225.995 57.0726V56.5238L226.248 55.9295L226.753 55.7592L226.961 55.3959L227.342 55.1309L227.516 56.2664L227.874 57.3451L228.734 58.4238L229.881 59.4306L230.741 59.934L231.171 61.1565L230.885 62.5229L229.738 63.0982L229.236 63.6735L228.376 65.1117L227.014 66.4781L226.225 67.4129L225.222 68.204L223.932 69.2108L223.358 69.5703L223.573 70.649L224.218 71.3682L224.648 72.8784L224.792 74.4604L224.648 76.1144L223.358 76.6178L221.279 77.0493L220.204 77.5527L218.986 78.4157L217.695 79.6382L216.477 80.5731L215.186 81.7237L213.609 82.1552H212.463L211.602 81.3641L210.527 80.645L209.309 80.7169L206.732 80.9326L204.725 81.1484L203.219 80.7888L201.858 80.5012L200.567 80.3573L200.175 81.4814L200.763 81.6555L201.71 81.7464L201.695 82.0151L201.854 82.6283L202.322 82.7002L202.476 83.4799L203.027 83.5139L203.382 83.8016L203.917 84.4072L203.993 84.9863L204.208 85.1604L204.219 85.6146L203.65 86.3299L202.574 86.6176H200.854L199.779 87.2648L198.704 88.1996L197.772 88.4873L196.983 88.6311L196.123 89.566L196.625 90.6447L195.908 91.22L195.12 92.3706L195.836 93.1617L196.481 93.5931V94.6718L196.338 95.391L195.765 95.9663L193.686 95.8944L191.751 96.1101L189.6 96.3978L187.593 96.6854L186.446 96.5416L185.801 95.6786L185.371 94.3123L186.088 93.1617L186.159 92.011L184.941 91.22L184.439 90.0694L183.579 88.775L181.859 87.1209L180.353 85.8984L178.991 84.2444L177.486 83.6691L176.482 82.7342L175.694 81.7994L175.909 80.5768L175.551 78.9948L174.834 78.2037L172.325 78.0599L171.106 77.6284L169.96 77.1969L168.669 76.9093L167.737 75.6868L167.307 74.8238L167.236 73.3855L166.375 72.3068L165.085 71.372L164.368 70.0056V67.8444L164.87 66.2623L165.587 64.6802L165.896 64.1466L166.591 62.9543L167.236 61.3041L167.737 59.3625L168.096 57.7804L168.454 56.414L169.171 55.1196L169.827 54.0106L169.877 53.3747L170.476 53.0568L170.971 52.3831L171.005 50.044L171.921 49.5823L172.876 49.1924L173.793 47.739L174.004 46.7474L174.253 46.1456L174.502 45.7217L174.641 43.8784L175.207 43.2047L176.162 42.565L177.328 41.9973L178.422 41.1836L180.365 38.2086L180.478 38.0989L180.9 37.7128L181.047 37.0467L182.194 36.4714L183.915 35.9377L184.307 35.5403L184.971 35.5705L185.05 35.0747L185.352 34.7757L185.892 34.647L185.756 34.0074L186.118 33.6365L186.435 33.3147L186.718 33.0233L186.835 32.4404L187.159 32.0998H187.54L188.574 32.0317L188.88 31.7326L189.185 31.4336L189.63 31.339L190.106 31.5623L190.389 31.8159L190.419 32.3572L190.196 32.6751L189.943 32.8984L189.909 33.311L190.321 33.3412L190.445 33.6289L190.57 34.0717L190.856 34.4199L190.958 35.0634V35.0634Z" fill="#938080"/>
<path d="M155.37 13.4289H155.74L156.129 13.8187L156.272 14.2464L156.521 14.5643L156.804 14.8482L157.121 15.0261L157.264 15.1321L157.653 15.4538L157.83 15.9875L157.936 16.5552L158.147 16.8731L158.396 17.263L158.785 17.5468L158.996 17.8307L159.102 18.1486L159.456 18.3606L159.773 18.8223L159.807 19.4961L160.056 19.8518L160.233 20.1698L160.305 20.5975L160.022 20.8473L159.528 20.7034L159.351 20.3136L159.139 20.1357L158.962 19.7459L158.713 19.462L158.358 19.0002L158.075 18.7164L157.792 18.3606L157.51 17.9707L157.261 17.7928L157.155 17.3311L156.872 16.9753L156.729 16.6195L156.8 16.1918L156.944 15.9799L156.8 15.59L156.551 15.3402L156.374 15.0904L156.446 14.8406L156.234 14.6627L155.88 14.4508L155.774 13.989L155.808 13.6711L155.37 13.4289V13.4289ZM155.37 13.4289H155.314L155.242 13.3569L155.37 13.4289ZM130.565 2.1839L130.105 2.67972L129.856 3.2134L129.573 3.85305L130.033 4.38672L130.493 4.17476L130.954 3.85683L131.203 3.42914L131.663 2.78949L131.784 2.72514L132.089 2.6116L132.444 2.68351L132.482 3.03551L132.515 3.17933L132.621 3.64109L132.764 3.95902L133.119 4.10285V4.17476L133.112 4.19369L133.115 4.30345L133.119 4.29588V4.49648L132.908 4.81441L132.553 5.27617L132.199 5.70386L132.515 5.98773L133.081 5.95367L133.33 5.31402L133.791 4.64031L134.323 4.42835L134.643 4.07257L134.998 3.28909L135.635 2.33151L136.062 1.61995L136.665 1.52533L137.224 1.83191L138.842 2.77813L139.868 3.52376L139.763 3.87954L139.514 4.26938L139.159 4.87497L139.016 5.30266L138.767 5.6206L138.623 6.01044L138.657 6.29431L138.869 6.54411L139.257 6.75607L139.751 6.57818L140.14 6.08235L140.351 5.54868L140.668 5.12099L140.846 4.73114L141.023 4.19747H141.977L142.43 4.48134L143.064 4.79927L143.569 5.1172L144.075 5.62438L144.946 6.15048L145.403 6.51383L145.905 6.75228L146.61 7.43357L147.308 7.94074L148.165 8.57661L148.923 8.89454L149.462 9.14813L150.123 9.38279L150.602 9.87861L150.821 10.3555L151.232 10.8627L151.537 11.4758L151.469 12.388L151.537 12.4372L151.715 12.8649L152.035 13.3607L152.39 13.6787L152.707 14.0344L153.016 14.3978L153.129 14.4243L153.341 14.852L153.518 15.2078L153.695 15.7414L153.839 16.4151L154.227 17.3727L154.208 17.3841L154.51 17.6566L154.793 17.9405L154.937 18.2243L155.114 18.6482L155.152 18.652L155.612 19.0419L156.038 19.6815L156.208 20.3287L156.555 20.6769L157.313 21.5323L157.789 22.3045L157.857 23.0577L158.034 23.4475L157.842 24.3672L157.645 24.6208L157.219 24.9387L156.759 25.3286L156.332 25.4724L156.227 25.6503L156.37 25.8623L156.476 26.0742L156.725 26.1461L156.476 26.43L156.087 26.5019L155.699 26.536L155.382 26.9258L155.204 27.6715L154.993 28.0272L154.744 28.595L154.25 28.7009L153.861 28.9848V29.4806L153.79 30.1543L153.646 31.0779L153.329 31.5396L153.152 32.0354L152.797 32.3193L152.571 32.5237L152.586 32.694L152.269 33.0839L152.02 33.4018L151.843 33.6857L151.737 34.2912L151.526 34.8249L151.202 35.4646L150.605 35.457L150.077 35.51L149.285 35.8317L148.704 36.0967L146.818 36.1421L145.252 36.9747L143.502 36.7893L142.302 35.4002L141.566 34.1966L140.366 32.9022L139.261 32.4404L136.865 32.1641L135.39 32.8114L134.285 34.2912L133.085 38.2692L132.165 40.5818L131.059 42.7997L129.769 44.5559L128.479 45.5741L126.819 45.7595L125.344 46.0358L124.698 46.8685L126.079 49.3665L127.185 50.8464L127.739 53.0644V55.5624L127.554 57.6895L127.83 59.3549L128.2 60.6493L128.845 61.482L129.437 62.4736L128.89 64.6689L127.83 66.3835L127.094 68.6014L126.355 70.3576L125.155 71.2811L123.68 72.3901L121.744 74.0555L121.284 75.6262L120.364 76.9206L119.258 77.5679L118.153 78.9569L117.598 80.6223L117.968 82.193L119.443 83.2111L120.364 84.2293L121.839 85.5237L123.314 87.0945L124.514 87.8325H125.619L126.54 88.018L126.724 89.2216L126.079 90.0542L125.249 90.6106L124.789 91.5341L124.974 92.9232L124.514 94.4031V95.5121L123.593 96.7157L122.393 97.1774L121.563 97.3629L120.918 98.1956L120.088 99.1191L119.073 100.599L118.153 102.079L117.877 103.097L117.968 104.115V105.133L117.693 106.151L117.508 106.89L117.232 108.184L116.587 108.275L116.033 107.718L115.297 107.071L114.429 106.397L114.071 105.103L112.279 104.747L110.343 103.669L108.695 102.662L107.118 101.511L106.329 100.648H104.179L102.53 99.7133L100.523 98.1312L98.9462 96.3334L96.5807 94.8232L94.717 93.3131L93.9285 92.4501L93.2117 91.3714L92.9966 90.5804V88.2791L94.4303 88.563H96.0072L97.2258 88.2034L98.3727 87.3405L99.3763 86.6213L100.595 86.3337L100.81 84.6835H102.459L103.964 84.4677L104.756 83.6048L104.541 81.9546L103.681 81.0916L102.677 80.5163L101.602 80.0129L100.025 78.0712L97.9464 75.77L96.4411 73.6883L96.1544 71.5309L95.9393 68.0829L95.7243 66.0693L94.8641 64.7067L93.7889 62.6932L93.2871 60.5358L92.3553 58.2346L91.7102 56.2248L90.9933 54.4269L89.6314 52.9887L88.0544 50.6193L86.9075 48.25L86.4058 45.0139L86.0474 42.9322L87.0509 40.8467L87.9111 39.6242L87.696 36.7477V34.7379L87.9828 31.5018L90.0615 29.492L91.7102 27.5503L92.5703 26.184L92.427 23.8828L91.8535 22.0849L91.6988 20.976L92.2497 20.9532L92.6496 20.8662L92.7477 21.0441L92.8042 20.8435L93.0872 20.5937L93.4758 20.3439L93.7248 20.166L93.8681 19.8481L94.0794 19.3144L94.2907 19.1024L94.5736 18.7126L94.7849 18.0729L94.9622 17.7172L95.1735 17.3614L95.6677 17.1835L96.7656 17.1116L96.7995 16.7217L96.6222 16.4719L96.6561 16.0442L96.8674 15.5484L97.1504 15.1586L97.7879 14.7687L98.2143 14.4508L98.4633 14.1328L99.1348 13.849L99.7535 13.6635L99.7912 13.5992H99.9686L100.15 13.4591L100.395 13.2585L100.697 13.092L101.085 13.0466L101.481 12.952L101.802 12.7362L101.911 12.6605L102.579 12.6151L103.436 12.0776L103.443 12.0247L103.522 12.036L103.949 11.7862L104.726 11.3244L105.967 10.435L106.782 9.6553L107.631 8.98159L108.585 8.51983L109.295 7.9521L110.675 6.9226L111.207 6.74471L111.917 6.35487L113.048 5.64331L114.146 4.75385L115.101 4.14827L115.542 3.83791L115.855 3.73571L116.021 3.49726L116.161 3.39886L116.765 3.11499L117.368 2.90303L117.945 2.56239L117.949 2.55861L117.968 2.54725L117.976 2.53211L118.391 2.14605L118.896 1.41557L119.488 1.14305L120.375 1.10899L120.82 0.950023L121.816 0.798627L122.382 0.620737H123.159L124.05 0.537469L124.97 0.302805L126.362 0.28388L127.437 0.124914L128.482 0.094635H129.275L130.32 0.189258L130.954 0.348224L131.557 0.730499L132.191 0.984088L132.304 1.26039L132.387 1.39286L132.165 1.47234L131.738 1.61617L131.172 1.79406L130.565 2.1839V2.1839Z" fill="#7B6C6C"/>
<path d="M239.007 49.8737L239.841 50.1462L240.335 50.1197L241.523 50.6458L242.467 50.8956L243.395 51.1908L244.409 51.3195L244.874 51.6147L245.549 51.7434L245.587 51.8078L246.439 52.2203L247.024 52.6329L247.778 53.0454L248.707 53.9425L249.669 54.7714L250.597 56.1528L251.181 57.1521L251.389 58.0831L251.8 59.0142L252.11 59.8772L252.283 62.326L252.181 63.7756L252.042 64.8808L252.076 64.9073L252.042 68.8853L253.038 68.9534L254.105 69.4L255.033 69.9867L254.279 71.917L253.041 74.7784L251.363 78.8206L249.952 82.1059L248.922 84.6229L247.307 88.0709L245.862 91.5909L245.345 92.8324L245.243 93.5212L245.002 94.3501L245.519 95.1449L246.379 95.3531L247.171 95.4212L248.031 95.285L249.303 95.0427L250.163 94.9746L250.68 94.8384L251.298 94.7362L251.951 94.4599L253.053 94.1836L253.671 94.2517L254.358 94.4599L255.184 94.7362L255.837 95.0806L256.32 95.391L256.871 95.8035L257.387 95.9776L258.142 96.1139L258.625 96.4242L259.451 96.6665L260.172 97.185L260.187 97.6354L260.225 98.6762L260.062 99.4105L259.817 99.736L259.81 99.7474H259.791L259.395 100.111L258.47 100.357L257.682 100.603L256.961 100.766L256.01 101.08L255.101 101.53L254.369 101.912L253.664 102.09L253 102.363L252.211 102.635L251.6 102.881L251.193 103.018L250.027 103.135L248.08 103.366L246.658 103.29L245.458 102.62L243.964 101.897L241.565 101.023L239.184 101.549L237.743 102.056L237.264 99.6528L236.966 99.1342L239.128 94.2858L238.675 94.2063L237.822 96.2955L237.023 97.7414L236.634 99.1456L235.834 99.3348L234.072 99.2289L233.099 99.5392L232.725 99.7285L232.352 99.9442L232.111 99.8382L232.054 99.3159L231.59 99.2856L231.269 99.8761L230.767 99.7209L229.258 99.7587H228.742L228.485 100.016L228.013 99.8004H227.712L227.281 99.9745L227.066 100.19H226.206L225.95 100.493L225.478 100.622H225.048L224.531 100.879H223.547L223.524 100.959L222.867 100.868L222.358 100.989L222.12 101.288H221.641L221.158 101.541L220.8 101.81L220.321 101.871L220.23 102.139L219.661 102.109L218.853 102.321L218.374 102.741L217.616 103.199L216.371 103.415L215.511 103.589L214.696 103.892L214.137 104.236L213.364 104.323L212.806 104.497L212.119 104.672L211.131 104.887L210.701 105.103L210.055 105.576L209.584 105.834L208.38 105.962L207.094 106.22L206.128 105.989L205.634 106.738L205.026 106.454L204.989 106.45L204.43 106.333L203.883 106.693L203.223 106.662L202.386 106.874L201.937 107.325L201.367 107.264L200.918 107.294L200.179 107.154L199.707 107.37L199.19 107.544L198.59 107.673L198.104 108.131L197.209 108.32L196.76 108.381H196.1L195.651 108.532L195.293 108.892L194.904 108.861L194.176 108.782L194.067 109.043L193.35 109.195L192.645 109.274L191.916 109.49L191.464 110.039L190.864 110.16L190.358 110.379L190.026 110.849L189.249 110.879L188.562 111.091L188.023 111.182L187.095 111.212L186.442 111.31L185.473 111.473L184.314 111.992L183.371 112.207L182.255 112.552L181.383 113.15L180.783 113.827L179.885 114.429L178.599 114.978L177.988 115.398L177.376 115.689L176.795 116.045L175.965 116.363L175.539 116.072L175.249 116.102L174.604 116.424L173.766 117.264L173.381 117.748L172.932 117.941H172.612L172.257 117.907L171.774 118.134L171.627 118.521L171.118 119.001L170.669 119.482L169.861 120.201L169.197 120.038H168.745L168.296 120.36L167.843 120.814L167.36 121.299L167.096 121.791L166.59 122.01L166.402 122.51L166.009 122.366L165.493 121.847L165.119 121.219L164.429 120.716L163.893 119.959L163.474 119.387L163.086 118.785L162.606 118.036L162.248 117.616L161.984 116.711L161.437 115.451L160.762 114.255L160.735 112.347L160.852 111.965L161.312 111.897L161.633 112.188L162.954 112.253L163.436 112.09L163.821 111.961L164.368 111.833H165.462L165.945 112.06L166.945 112.158L167.33 111.738L167.228 111.231L167.039 110.962L166.496 110.652L165.809 110.591L165.21 109.989L164.64 109.388L164.561 107.832L163.983 107.321L163.142 107.344L163.425 106.802L163.629 106.212L163.704 105.799L163.651 105.213L163.618 104.929L163.806 104.52L163.538 103.491L163.27 102.896L162.893 102.245L162.731 101.704L163.108 100.406L163.863 99.8117L164.512 99.2705L164.998 98.4037L165.538 98.0782L166.455 97.6997L166.779 96.5643L166.13 95.5916L165.915 93.7521L164.297 92.6166L163.323 91.1556L162.082 90.6144L160.354 90.0732L159.705 89.7477L158.841 88.2867L158.14 86.5532L158.087 84.8765L157.815 83.794L156.412 83.4685L154.469 83.143L152.903 83.09V81.682L154.144 81.1408L156.087 81.031L156.789 80.327L156.736 79.1916L156.359 77.7306L155.604 76.1069L154.793 75.2401L154.846 73.0222L155.872 71.3454L156.846 69.612L157.438 67.2842L158.087 65.6075L159.056 64.0368L160.298 63.4426L161.648 63.5523L162.889 63.7681L164.617 64.0936L165.93 64.1731L165.621 64.7067L164.904 66.2888L164.402 67.8709V70.0283L165.119 71.3947L166.409 72.3295L167.269 73.4082L167.341 74.8465L167.771 75.7094L168.703 76.932L169.993 77.2196L171.14 77.6511L172.359 78.0826L174.868 78.2264L175.584 79.0175L175.943 80.5995L175.728 81.8221L176.516 82.7569L177.52 83.6918L179.025 84.2671L180.387 85.9211L181.892 87.1436L183.613 88.7976L184.473 90.0921L184.975 91.2427L186.193 92.0337L186.122 93.1844L185.405 94.335L185.835 95.7013L186.48 96.5643L187.627 96.7081L189.634 96.4204L191.784 96.1328L193.72 95.9171L195.798 95.989L196.372 95.4137L196.515 94.6945V93.6158L195.87 93.1844L195.153 92.3933L195.942 91.2427L196.659 90.6674L196.157 89.5887L197.017 88.6538L197.806 88.51L198.737 88.2223L199.813 87.2875L200.888 86.6403H202.608L203.683 86.3526L204.253 85.6372L204.242 85.1831L204.027 85.009L203.951 84.4299L203.416 83.8243L203.061 83.5366L202.51 83.5026L202.355 82.7229L201.888 82.651L201.729 82.0378L201.744 81.7691L200.797 81.6782L200.209 81.5041L200.601 80.38L201.891 80.5238L203.253 80.8115L204.759 81.1711L206.766 80.9553L209.342 80.7396L210.561 80.6677L211.636 81.3868L212.496 82.1778H213.643L215.22 81.7464L216.51 80.5958L217.729 79.6609L219.019 78.4384L220.238 77.5754L221.313 77.072L223.392 76.6405L224.682 76.1371L224.825 74.4831L224.682 72.901L224.252 71.3909L223.607 70.6717L223.392 69.593L223.965 69.2335L225.256 68.2267L226.259 67.4356L227.048 66.5008L228.41 65.1344L229.27 63.6962L229.771 63.1209L230.918 62.5455L231.205 61.1792L230.775 59.9567L229.915 59.4533L228.768 58.4465L227.908 57.3678L227.549 56.2891L227.376 55.1536L228.002 54.6124L228.387 53.9538L228.598 53.7494L228.806 53.6321L229.624 52.7275L230.296 52.1484L230.511 51.4141L231.145 51.1189L231.439 50.6534L231.903 50.4831L232.661 50.2711L233.714 50.1235L234.314 50.2711L235.321 49.9759L236.159 50.3657H236.675L237.396 50.044L237.887 49.9229L238.452 49.8661L239.007 49.8737V49.8737ZM216.884 45.3734L216.684 45.4302L216.458 45.3999L216.175 45.2296L215.465 44.4878L214.669 43.7762L214.639 43.3788L214.27 42.8943L214.526 42.8375L214.896 43.1214L215.265 43.1782L215.605 43.3485L216.001 43.5188L216.397 43.6627L216.367 43.9768L216.424 44.2039L216.593 44.3477L216.763 44.6051L216.65 44.8057V45.0328L216.85 45.2599L216.884 45.3734V45.3734ZM213.338 41.5015L213.194 41.6453L212.881 41.5318L212.681 41.2176L212.285 40.8202L211.802 40.4228L212.059 40.2789L212.172 40.3357L212.542 40.3925L212.798 40.5628L213.055 40.8202L213.198 41.2176L213.338 41.5015V41.5015ZM261.715 37.0542L261.119 37.1413L260.674 36.9899L260.183 36.6909L259.564 36.1799L259.18 35.8809L258.776 35.3699L258.519 34.8135L258.368 34.3026L258.176 33.7689L258.41 33.4472L258.621 33.1898L258.878 32.8265L259.217 32.3761L259.364 31.9067L259.598 31.4147L259.791 31.093L259.813 30.7713L259.666 30.6009L259.753 30.389L259.904 30.2187L260.096 30.3474L260.16 30.775L260.247 31.18L260.458 31.3731L260.651 31.6077L260.779 31.9294L261.353 32.0581L261.926 32.1452L262.481 32.3571L262.971 32.5502L263.205 33.0838L263.567 33.5115L264.099 34.1739L264.356 34.7946V35.2867L264.227 35.7976L264.099 36.2442L263.801 36.5849L263.292 36.6265L262.696 36.7552L262.122 36.9066L261.715 37.0542V37.0542ZM218.272 33.7613L218.536 33.9884H222.89L223.497 33.7235L224.026 33.4585L224.478 33.3072L227.315 33.345L227.768 33.1936H229.096L230.269 33.3828L231.405 33.5721L232.277 33.837L233.035 33.9884L233.488 34.1398L234.091 34.1777L234.468 33.7235L235.189 33.837L235.947 33.9884H236.668L237.234 33.7613L237.611 33.6099L237.988 33.6478L238.139 34.2155L238.252 34.4426L238.743 34.3669L239.082 34.0641L239.309 33.8749L240.18 33.7613L240.331 34.1398L240.633 34.3291L240.935 34.7076L240.897 35.0861L241.01 35.7711L241.161 36.1496L241.123 36.6795L241.237 37.2094L241.086 37.55L240.859 38.1556L240.935 38.9164L241.35 39.257L241.576 39.4841L241.803 39.5977L241.689 39.8626L241.274 39.7491L240.629 39.5598L239.758 39.6734L239.343 39.9383L238.815 39.7112L238.094 39.9383L237.641 40.1275L237.339 40.2789H236.581L236.204 40.0897L235.596 39.9383L235.37 40.1654L235.031 40.2789L234.427 40.1654L233.782 40.014L233.216 40.1654L232.495 40.2032L232.156 40.3925L231.665 40.6953L231.25 40.8088L231.137 41.1116L230.722 41.2252L230.119 41.3766L229.892 41.9065L229.817 42.3606L229.515 42.512L229.138 42.7013L228.874 43.0419L228.534 43.3826L227.968 43.4961L227.893 43.0798L227.402 43.0419L227.138 43.1555L227.025 43.4204L226.459 43.7611L225.738 43.8368L225.056 44.0639L224.41 44.2152L223.539 44.4802L222.705 44.783L221.721 44.9344L220.887 45.0101L220.472 45.3129L219.827 45.2372L219.525 44.7073L219.261 44.0601L218.733 43.2615L218.204 42.9208L217.94 42.2357L217.525 41.5885L217.035 41.2857L216.39 41.1722H215.367L214.952 40.718L214.688 40.1881L214.5 39.6961L214.311 38.8975L213.477 38.1367L212.719 37.8717L211.47 37.7582L210.787 37.3797L209.916 37.1148L209.308 36.812L208.324 35.9755L207.909 35.597L207.418 35.3321H207.117L206.551 35.4835L205.83 35.2942H205.264L204.581 34.9536L204.506 34.6886L204.053 34.0831L203.751 33.7424H203.261L202.959 34.0831L202.582 34.1209L202.242 33.8938L201.978 33.7046L201.752 33.4396L201.525 33.099L201.073 32.9097L200.62 32.4177L200.545 31.9635L200.318 31.4336L200.243 30.9416L200.092 30.6388L200.129 30.1089L200.582 29.9954L201.454 29.8061L202.02 29.4655L202.359 29.1627L202.586 28.5949L203.834 28.4814L204.098 28.2165L204.249 27.7244L204.513 27.4595H204.891L205.724 27.6866L206.328 28.1408L207.086 28.3678L208.109 28.8977L209.395 29.3898L210.682 29.7683L212.044 30.0332L212.764 30.4117L213.217 30.7523L213.975 31.0173L214.126 31.3201V31.9257L214.847 32.5729L215.718 32.9514L216.284 33.1028L217.722 33.292L218.272 33.7613V33.7613ZM291.047 27.3876L292.372 27.8796L293.13 28.5268L293.813 28.981L294.458 29.4352L295.254 30.0408L296.012 30.9151L296.616 31.2179L297.336 31.4828L297.865 31.937L298.355 32.4291L298.921 32.7318L299.336 32.8832L299.751 33.4131L299.789 34.1739L300.279 34.7795L300.807 35.3851L300.996 35.8885L301.641 36.8006L301.867 37.4857L301.905 38.9656L301.603 39.7642L301.264 40.3319L301.226 41.0549L300.811 41.7021L300.66 42.232L300.509 43.2577L300.321 43.674L300.094 44.2417L299.981 45.0782L299.906 46.1418L299.604 46.4824L299.453 47.4324L299.113 48.4203L298.849 49.181L298.434 49.6731L298.208 50.0137L297.11 50.3922L296.352 50.7329L295.707 50.9599L295.329 50.7329L294.458 50.3544L293.662 49.9759L293.096 49.7109L292.492 49.8623L291.885 50.203L290.862 50.5058L289.501 51.153L288.403 51.7586L287.267 52.4436L286.207 52.9357L285.867 53.1249L284.694 53.4277L283.898 53.844L283.747 54.4496L283.332 54.7524L283.03 54.9795L282.691 55.2445L282.083 55.9295L281.438 56.4594L280.986 56.5351L280.454 56.8758L279.925 57.065L279.473 56.7244L279.322 56.2323L278.945 55.9295L278.567 55.816L278.341 55.2066L277.888 55.0174L277.7 54.7146L277.473 54.1847L276.983 53.5753L276.568 53.2347L276.492 52.3982L276.04 52.2468V51.6791L275.436 51.2627L274.715 50.4641L273.957 49.5141L273.504 48.8669L273.052 48.2197L272.637 47.8033H271.992L271.652 47.4248L271.727 47.0464L271.765 46.3424L271.426 45.6194L271.124 45.1274L270.86 44.7111L270.558 44.219L269.875 43.534L269.309 43.1555L268.513 42.9284L268.174 42.1298L267.264 41.9027L266.582 41.6756L266.393 41.2214L266.129 40.5742L265.827 40.3471L265.563 40.12L266.167 39.7036L266.28 39.363L266.468 38.8331L266.77 38.0723L267.185 37.3873L267.449 36.8952L267.751 35.6424L267.487 34.7303L267.185 34.3896L266.808 33.7046L266.506 32.9438L266.317 31.9938L266.167 31.1952L266.053 30.283L265.827 29.0302L266.242 28.576L266.657 28.5003L267.185 28.8788L267.6 28.9924L268.128 29.2195L268.66 29.2952H269.188H269.871L270.399 29.5601L270.928 29.4844L271.494 29.333L271.909 29.2195L272.437 28.9924L272.852 28.5003L273.572 27.8153L274.006 27.5579L274.308 27.1794V26.5889L274.648 26.2483L274.949 25.9834L275.138 25.6427L275.289 25.1885L275.628 25.1128L275.968 25.2642L276.194 25.6049L276.572 26.0591L277.005 26.3997L278.066 26.4754L278.443 26.2105L278.933 26.324L279.424 26.816L279.839 26.8917L280.522 27.0053L280.899 27.4973L281.352 27.573L281.729 27.3081L282.106 26.623L282.408 26.3202L283.128 25.9417L283.279 25.2188L283.958 24.916L284.792 25.0296L285.245 25.1053L285.66 25.4459L286.343 25.673L287.252 25.8622L287.973 26.1272L288.995 26.3543L289.716 26.7328L291.047 27.3876V27.3876Z" fill="#757575"/>
<path d="M70.2626 183.488V183.787L69.9231 183.746L69.4326 183.81L69.3911 184.045L69.4326 184.321L69.8589 184.45L70.4135 184.662L70.7115 185.108L70.5003 185.449L70.289 185.79L69.7797 185.812L69.0365 185.941L68.5875 186.089L67.9273 186.153L67.0558 186.452L66.8445 186.581L66.3956 186.967L65.841 187.372L65.2864 187.905H65.0299L64.8601 187.5L64.7092 187.114L64.7318 186.217V185.449L64.4942 185.176L64.6451 184.836L64.9657 184.601L65.3694 184.624L66.0711 184.518L66.8144 184.389L67.218 184.177L67.5387 183.837L67.7953 183.496L68.0518 183.11L67.9877 182.834L67.8594 182.622V182.236L67.9877 181.789L68.4366 181.747L68.8214 181.876L69.3949 182.024L69.7571 182.3L69.9683 182.557L69.7571 182.705L69.7344 182.981L70.0098 183.216L70.2626 183.488V183.488ZM74.0164 172.925L73.8089 173.175L73.5524 173.11L73.4882 172.898L73.3826 172.664L73.1261 172.558V172.259H73.4241L73.6354 172.3L73.7863 172.599L74.0164 172.925V172.925ZM103.734 170.582L103.368 170.631L103.338 170.423L103.066 170.279L102.779 170.249L102.666 170.056L102.696 169.878L103.062 169.927L103.447 170.041L103.956 170.184L103.926 170.359L103.832 170.518L103.734 170.582ZM118.274 174.416L118.198 174.605L117.708 174.492L116.95 174.34L116.497 174.037L116.195 173.81L115.323 173.394L114.414 172.902L113.769 172.368L113.505 171.914L113.128 171.229L112.864 170.851L112.713 170.396L112.524 169.98V169.144L112.562 168.614L112.864 168.311L113.166 168.538L113.392 168.803L113.694 169.219L113.996 169.484L114.486 169.901L115.052 170.241L115.735 170.809L115.886 171.339L116.414 171.907L116.64 172.247L117.285 172.777L117.7 173.386L117.889 173.841L118.191 174.106L118.274 174.416V174.416ZM91.997 169.443L92.2196 169.844L92.6195 169.795L92.8911 169.73L93.1137 169.779L93.2722 170.082L93.5099 170.275L93.7815 170.597L94.0531 170.983L94.1173 171.384L94.0682 171.929L93.8305 172.024L93.5929 172.202L93.3552 172.524L93.0685 172.955L92.9402 173.61L92.7817 173.803L92.6233 173.852L92.5591 173.58L92.031 173.53L91.8386 173.738L91.582 174.106L91.3104 174.265L91.0878 173.977L91.0086 173.625L90.8313 173.016L90.6087 172.213L90.3521 171.574L90.3031 170.915L90.4804 170.419L90.5294 169.859L90.6728 169.378L90.9105 168.754L91.167 168.432L91.3896 168.16L91.4198 167.936L91.5141 167.584L91.6726 167.217L92.3441 167.168L92.4082 167.342L92.3139 167.486L91.948 167.55L91.8046 167.63L91.7103 167.868L91.582 168.19L91.6952 168.383L91.7254 168.799L91.8046 169.166L91.997 169.443V169.443ZM68.7196 169.287L69.2515 169.458L69.6137 169.223L70.04 168.901L70.4437 168.667L70.7417 168.432L70.9983 168.345L71.2322 168.58L71.5302 168.901V169.094L71.2963 169.287H70.9568L70.572 169.416L70.3154 169.908L70.2286 170.419L70.4625 170.805L70.8662 171.127L71.5491 171.214L71.9754 171.343L72.2734 171.619L72.6771 172.005L72.4847 172.281L71.8018 172.346L71.6736 172.879L71.3982 173.583L70.7606 173.67L70.123 173.799L69.6326 173.712L69.1421 173.542L68.5687 173.413L67.5878 173.436H65.6712L65.3732 173.564L64.6488 173.822L63.9886 173.735L62.8832 173.436L61.6043 173.243L60.6045 173.137L59.9217 172.925L58.9219 172.838L58.0504 172.732L57.6015 172.497L57.5373 172.028L57.8354 171.6L58.1334 171.259L58.8578 171.172L59.2614 171.021L59.6236 170.764L60.1329 170.359L60.5366 169.889L60.8988 169.356L61.3025 168.951L62.0683 168.459L62.6644 168.095L63.2379 167.819L64.6224 167.626L65.1544 167.497L65.6637 167.327L66.3239 167.028L66.8332 166.941L67.4293 167.069L67.6217 167.497L67.6632 167.732L67.7915 168.243L68.2593 168.776L68.7196 169.287V169.287ZM140.212 166.138L140.057 166.161L139.812 166.051V165.873L139.967 165.805L140.057 165.714L140.212 165.605L140.28 165.427L140.434 165.204L140.548 164.98L140.77 164.912L140.816 165.135L140.948 165.245L140.857 165.423L140.766 165.468L140.657 165.646L140.502 165.802L140.348 165.957L140.212 166.138V166.138ZM138.922 164.621L138.699 164.643L138.631 164.42L138.676 164.219L138.831 164.042L139.122 164.064L139.231 164.31L139.122 164.511L138.922 164.621V164.621ZM148.448 160.465L148.738 160.711L149.093 160.688L149.47 161.067L149.783 161.267L150.16 161.358L150.496 161.604L150.519 161.827L150.387 162.297L150.496 163.122L150.628 163.637L150.696 164.397L150.741 165.045L150.519 165.222L150.342 165.113L150.028 164.844L149.828 164.598L149.674 164.352L149.496 164.083L149.564 163.769L149.493 163.413L149.18 163.303L148.825 163.012L148.225 162.52L147.87 162.073L147.357 161.627L146.957 161.135L146.535 160.866L146.203 160.643L146.18 160.242L146.403 159.973L146.603 159.704L147.071 159.594L147.248 159.772L147.448 160.151L147.893 160.306L148.448 160.465V160.465ZM154.725 161.854L154.503 161.986L154.148 161.786L153.903 161.54L153.526 161.339L153.103 160.938L152.749 160.514L152.458 160.158L152.19 159.825L152.168 159.178L152.122 158.799L151.854 158.444L151.922 157.997L152.145 157.887L152.522 157.91L152.613 158.133L152.945 158.334L153.235 158.625L153.68 159.049L154.058 159.45L154.28 159.806L154.703 159.961L155.035 160.23L155.212 160.499L155.144 160.923L154.967 161.146L154.79 161.57L154.725 161.854ZM86.9378 159.746L86.4851 159.935L85.6514 159.897L85.0477 159.973L84.5196 160.086L83.9914 159.708L83.765 159.481L83.3878 159.14L83.2746 158.61L83.35 158.194L83.3878 157.66L83.2746 157.32L83.5009 156.941L83.9914 156.903L84.595 157.13L85.391 157.433L85.9947 157.698L86.4851 158.039L87.168 158.493L87.6207 158.947L87.7716 159.288L87.4698 159.666L86.9378 159.746V159.746ZM151.719 155.378L151.473 155.711L151.16 155.912L150.783 155.957L150.428 155.756L150.115 155.601L150.225 155.423L150.557 155.378L150.734 155.469L151.002 155.491L151.202 155.446L151.379 155.113L151.624 154.822L151.756 154.466L151.979 154.534V154.734V154.958L151.779 155.09L151.719 155.378V155.378ZM154.303 155.378L153.903 155.423L153.771 155.314L153.816 155.136L154.039 155.026L154.216 154.916L154.416 154.806L154.507 154.405L154.616 154.159L154.884 154.091L155.016 154.382L154.925 154.716L154.725 154.962L154.503 155.185L154.303 155.378V155.378ZM143.596 155.847L143.396 155.893L143.151 155.669L142.928 155.423L142.683 155.109L142.438 154.863L142.238 154.549L141.97 154.148L141.861 153.701L142.193 153.97L142.325 154.171L142.547 154.371L142.815 154.594L143.192 154.95L143.415 155.242L143.592 155.533V155.847H143.596ZM90.2314 156.139L89.8164 156.214L89.4769 155.836V155.457L89.2128 155.155L88.8355 154.776L88.6091 154.511L88.1564 154.171L88.0432 153.678L88.1187 153.031L88.496 152.27L88.8732 151.665L89.7447 151.4L90.0465 151.589L90.2352 151.741L90.4238 152.308L90.6502 152.914L90.8011 153.368L91.0274 153.936L90.9897 154.504L90.7256 155.033L90.4615 155.601L90.2314 156.139V156.139ZM81.6787 154.318L80.9204 154.583L80.2753 154.47L79.6717 154.242L79.3698 154.091L79.0303 153.75L79.068 153.41L78.8794 152.956L79.2189 152.501L79.8226 152.274L80.2376 151.896L80.9581 151.555L81.6787 151.177L82.0937 150.987L82.6596 150.798H83.4934L84.1762 150.95L84.7421 151.29L85.044 151.824L85.308 152.202L85.1949 152.619L84.9308 152.922L84.5158 153.186L83.7197 153.527L82.6219 154.095L81.6787 154.318V154.318ZM98.3653 152.687L98.5916 153.065L99.0821 152.99L99.3085 152.914L99.4594 153.141L99.5725 153.33L100.176 153.671L100.327 154.049L100.704 154.39L101.463 155.037L102.108 155.605L102.561 156.135L102.862 156.551L102.674 156.74L102.636 157.043L103.089 157.497L103.315 157.8L103.617 158.292L103.692 158.709L103.315 158.936L102.711 158.898L101.915 158.86L101.764 158.444L101.387 158.519L101.123 158.746L100.633 158.709L100.331 158.33L100.218 157.876L100.104 157.191L99.8781 156.812L99.6518 156.51L98.6671 155.825L98.3276 155.56L97.988 155.408L97.4221 155.257L97.0448 155.068H96.5921L96.4035 155.408L96.479 155.711L96.7808 155.787L97.1958 156.052L97.6108 156.279L97.988 156.582L98.3276 156.846L98.2521 157.111L97.9503 157.225L97.7994 157.528L97.2712 157.641L97.0448 158.02L96.743 158.323L95.947 158.36L95.2264 158.474L94.0531 158.36L93.2948 158.171L92.7289 158.02L92.0461 157.944L91.5933 157.755L91.2915 157.376L91.2538 156.846L91.4802 156.354L91.6688 156.014L92.0461 155.635L92.2724 155.408L92.3479 155.143L92.7251 155.105L93.1401 155.37L93.8607 155.673L94.5058 155.711L95.034 155.56L95.2604 154.95L94.8831 154.572H94.0116L93.408 154.307L92.6874 153.853L92.461 153.323L92.3101 152.6L92.0083 151.877L91.8197 151.461L91.7442 150.931L91.782 150.17V149.867L92.0461 149.564L92.2347 149.224L92.8006 149.072L93.2156 149.148L94.0493 149.299L94.5021 149.451L95.1849 149.678L95.449 149.981L95.7131 150.397L96.0526 150.662L96.4676 151.078L96.9958 151.305L97.524 151.608L97.9013 151.987L98.1653 152.327L98.3653 152.687V152.687ZM125.759 136.858L126.559 137.067L127.449 137.006L127.924 137.214L128.4 137.305L128.754 137.214L129.109 137.006L129.407 136.828L129.584 136.499L129.852 136.351L129.882 136.707L130.21 137.154L130.98 137.392L131.84 137.986L133.206 138.463L133.949 139.179L134.662 139.417L135.432 139.746L136.322 139.864L137.213 139.833L138.043 139.716H138.665L139.288 140.045L139.642 140.193L140.027 140.462L140.68 140.761L141.393 140.851L141.808 140.613L142.283 140.284L142.996 140.193H143.588L144.151 140.31L144.713 140.371L144.95 140.639L145.041 141.264L144.864 141.68L145.248 141.919L145.694 141.858L145.841 141.529L146.109 141.468L146.614 141.113L146.999 140.965L147.504 140.757L148.334 140.639L148.84 140.848L149.225 141.086V141.502L149.017 141.858L148.87 142.365L148.425 142.929L147.95 143.437L147.595 144.031L147.15 144.625L146.912 145.132L146.35 145.904L146.037 146.112L145.739 146.321L145.622 146.798L145.414 146.737V146.381L145.384 145.995L145.324 145.726L144.969 145.427L144.701 145.189L144.464 145.041L144.166 144.833H143.837L143.72 145.28L143.781 145.666V146.234V146.65L143.573 147.066L143.483 147.513L143.811 147.959L144.079 148.228V148.406L143.841 148.467L143.634 148.735L143.219 149.091L142.981 149.239L142.475 149.477L142.177 149.655L142 149.833L141.732 149.625L141.434 149.534L141.136 149.712L140.574 149.829L140.129 149.977L139.744 150.068L139.389 150.306L139.212 150.662L138.691 150.722L138.129 150.545L137.861 150.367L137.507 150.068L137.39 149.504L137.213 148.849L136.798 148.58L136.383 148.342L136.352 147.986L136.054 147.838L135.432 147.483L134.926 147.036L134.572 146.529L134.096 146.112L133.742 145.575L133.444 144.92L133.146 144.474L132.761 144.175L132.791 144.352L132.255 144.114L132.018 144.023L131.84 143.577L131.633 143.338L131.248 143.069L130.388 143.039L130.241 143.156L130.124 143.334L129.679 143.243L129.411 143.035L129.026 142.767L128.698 142.381L128.369 141.994L127.924 141.4L127.479 141.162L126.943 140.776L126.498 140.537L126.408 140.121L126.023 139.883L125.461 139.466L125.046 138.989L124.54 138.721L123.857 138.573L123.62 138.244L123.412 137.797L123.265 137.441L122.967 136.964L122.79 136.726L122.88 136.427L123.265 136.366L123.65 136.275L124.363 136.393L125.163 136.631L125.759 136.858V136.858ZM144.422 137.574L144.513 137.93L144.305 138.051L144.068 138.259H143.207L142.853 138.406L142.555 138.615L142.257 138.853L141.721 139.031L141.393 139.269L141.125 139.508L140.917 139.599L140.589 139.421L140.321 139.39L139.936 139.182L139.374 139.091L138.99 138.914H138.544L138.427 138.705L138.518 138.558L138.578 138.35L138.371 138.081L137.926 137.873L137.571 137.812L137.243 138.168L137.005 138.346L136.56 138.406L136.322 138.228L135.994 138.051L135.519 137.842L135.104 137.752L134.689 137.634L134.334 137.366L134.036 136.979L133.738 136.65L134.066 135.965L134.658 135.696L135.194 135.367L135.964 135.038L136.733 134.709L137.507 134.561L138.276 134.353H139.227H139.733L140.593 134.235L141.185 134.413L141.747 134.799L142.223 135.307L142.758 135.814L142.996 136.052L143.411 136.499L143.856 137.063L144.422 137.574V137.574ZM125.879 134.269L125.612 134.425L125.17 134.368L124.691 134.349L124.71 134.118L124.94 134.005L125.076 133.812L125.219 133.736L125.476 133.793L125.57 133.887L125.744 134.061L125.879 134.269V134.269ZM69.7118 118.051L69.9759 119.115L70.0513 121.053L70.3531 121.28L70.7681 121.847L71.451 122.57L72.3225 123.596L73.0808 123.937L73.6467 124.164L75.8801 124.315L77.0157 124.429L77.9626 124.959L78.9096 125.568L79.4378 126.594L79.5132 127.657L79.3246 128.074L78.4531 128.797L77.4307 129.671L76.4837 130.356L75.9178 130.659L74.82 130.772L73.9485 130.545L73.4581 130.167L72.5866 129.712L71.1869 129.027L70.24 128.762L69.3307 128.649L68.7648 128.725L68.2744 129.065L67.6293 129.482L66.9087 130.049L66.3051 130.659L66.1919 131.306L66.72 131.874L67.5538 132.025L68.0065 132.214H68.5724L68.7988 131.911L69.1383 131.836L69.0629 132.29L68.8742 132.593L69.2138 132.782L69.2515 133.236L69.0629 133.463L68.7988 133.917L68.1159 134.565L67.4708 135.057L67.2822 135.473L66.3352 135.587L65.5392 135.095L64.8941 134.485L64.2489 134.447L63.9848 134.031L63.3812 133.577L61.5666 132.589L60.2423 132.021L60.2046 130.579L59.9028 130.201L59.4878 130.39L59.1105 130.557L58.8842 131.09L58.5069 131.052L57.941 130.901L57.4506 130.825L57.1865 131.014L56.7715 131.431L56.4697 132.04L56.3942 132.608L56.6583 132.759L57.4921 133.138L58.7031 133.861L59.8387 134.659L61.2761 135.382L62.1476 135.912L62.7512 136.328L62.9021 136.669L62.6003 136.972L62.1476 137.085L61.2761 137.502L60.5932 137.805L59.9858 138.168L59.1898 138.183L58.356 138.675L56.9941 139.814L55.4812 140.916L53.3987 142.093L52.1877 143.005L51.6218 143.043L51.4331 142.282L50.7503 140.802L50.0674 139.027L49.5015 137.774L49.1997 136.855L48.5169 135.488H48.0264L47.6114 135.677L46.8154 136.245L46.1325 136.699L45.4497 137.191L45.5628 137.683L45.9401 138.936L46.5437 140.53L47.302 142.846L47.9472 144.667L47.9094 145.314L47.5699 145.654L46.7739 146.184L45.9024 146.794L45.3365 146.983L45.2988 146.415L44.3895 144.25L43.2917 141.366L42.4957 139.277L42.1184 139.088L41.8543 139.277L40.7187 140.113L39.8472 140.798L39.47 141.253L39.5077 142.241L40.9828 146.037L41.7788 148.732L41.7411 149.337L41.477 149.564L40.1151 150.132L38.5268 150.855L37.0517 151.158L35.7275 151.309L34.3655 150.775L33.2677 150.094L32.3585 149.068L31.4115 147.854L31.072 147.286L30.8456 146.907L29.8609 145.427L28.6876 143.414L27.7784 141.745L26.9824 140L26.3788 138.558L26.1147 137.608L25.926 137.154L25.4356 135.939L25.0583 134.565L24.7942 133.463L24.6433 132.665L25.0206 132.097L25.4356 131.298L26.3825 130.5L27.3672 129.625L28.5405 128.713L30.0533 127.423L31.1512 126.359L32.0227 125.333L33.0451 124.61L33.992 123.888L35.5803 122.937L37.3761 121.495L38.3231 120.773L39.4209 120.087L40.2924 119.402L41.1639 118.873L42.1108 118.225L42.9069 117.578L44.0802 117.237L45.1403 117.086L45.5176 116.859L45.9892 116.927L46.2532 117.154L47.4265 117.192L47.8415 116.889L47.9924 116.242L48.4829 115.863L49.3544 115.75H50.1127L50.4522 115.977L50.3391 116.776L49.8109 117.116L49.4713 117.343L48.7885 117.953L47.7661 118.751L47.2756 119.206L46.8606 119.966L46.7097 120.765L46.5211 121.03L45.9552 121.677L45.3516 122.589L44.4046 123.615L43.4954 124.451L42.7748 125.099L42.8126 125.784L43.0012 126.011L43.5294 126.579L44.3254 127.226L45.0083 127.642L45.1969 127.301L45.7251 126.961L46.4079 126.545L46.8984 126.166L47.3134 125.712L47.5775 125.485L47.8038 125.598L47.9924 125.863L48.4829 126.09L48.7847 125.863L49.1243 125.56H49.577L50.0297 125.485L50.2183 124.902L49.8411 124.448L49.7656 123.918L49.8411 123.35L50.1806 122.665L50.7088 121.98L51.4671 121.219L52.0707 120.765L52.448 120.386L52.9384 120.273L53.2403 120.386L53.5043 120.651L53.9948 120.576L54.4098 120.159L54.5607 119.781L54.523 119.402L54.2966 119.1L54.2589 118.608L54.4098 118.418L54.5984 118.645L54.787 118.835L55.1266 119.024H55.6548L55.9943 118.494L56.3716 118.04L56.1452 117.548L55.6925 117.169L55.353 117.018V116.67L55.5793 116.405L56.1452 116.064L56.8658 115.61L57.5864 115.231L58.1523 115.156L58.9106 115.118L59.8198 114.702L60.6158 114.55L61.676 114.323L63.1134 114.096L64.3244 114.247L65.3091 114.474L66.1051 114.815L67.0898 115.194L67.8481 115.916L68.4517 116.424L69.0553 116.991L69.3949 117.37L69.7118 118.051V118.051ZM51.6331 110.375H50.7956L50.3504 110.095L50.1844 109.705V109.145L50.1014 108.419L49.9354 107.972L49.7958 107.412L49.6562 107.018L49.5996 106.598L49.6826 106.235L50.075 106.208L50.4371 106.291L50.6899 106.598L50.9691 106.988L51.6369 107.688L51.916 108.108L52.0556 108.415L51.999 108.778L51.9424 109.115L51.8859 110.148L51.6331 110.375ZM67.1992 14.833L67.7688 15.1358L68.4253 14.9579L69.6099 14.746L70.2437 14.1972L71.1152 13.8603L71.6811 13.9436L72.164 13.9247L72.3979 14.534L72.3791 14.9731L72.7677 15.2002L73.3713 15.4235L73.658 15.7755L73.7221 16.2524L73.9447 16.7936L74.3899 17.1759L75.0388 17.3765L75.6651 17.5582L76.1102 18.0351L76.5252 18.2584L76.4951 18.7693L75.9556 19.216L75.8612 20.0146L76.4083 20.5217L77.3251 20.5558L77.9287 20.5255L80.8563 20.3779L81.5505 19.954L81.69 19.9124L82.3239 20.166L83.2519 20.465L84.2215 21.1008L84.7271 21.7783L85.2326 21.8616L85.5872 21.8351L86.4851 21.7746L87.0246 21.8048L87.3717 21.4226L87.7188 21.169L88.1941 21.1387L88.9826 20.957L89.3033 20.9835L89.5938 21.0933L89.9145 21.0554L90.2163 21.1008L90.4879 21.116L90.7218 21.0365L91.1972 20.9229H91.5594L91.7216 20.9911L91.8763 22.1001L92.4497 23.8979L92.5931 26.1991L91.7329 27.5655L90.0843 29.5071L88.0055 31.5169L87.7188 34.753V36.7628L87.9338 39.6393L87.0737 40.8618L86.0701 42.9473L86.4285 45.029L86.9303 48.2651L88.0772 50.6345L89.6542 53.0038L91.0161 54.4421L91.7329 56.2399L92.378 58.2497L93.3099 60.5509L93.8117 62.7083L94.8869 64.7219L95.7471 66.0844L95.9621 68.098L96.1771 71.5461L96.4639 73.7034L97.9692 75.7851L100.048 78.0864L101.625 80.028L102.7 80.5314L103.704 81.1067L104.564 81.9697L104.779 83.6199L103.987 84.4829L102.481 84.6986H100.833L100.618 86.3488L99.399 86.6365L98.3955 87.3556L97.2486 88.2186L96.03 88.5781H94.453L93.0194 88.2943V90.5955L93.2344 91.3865L93.9513 92.4652L94.7398 93.3282L96.6035 94.8384L98.9689 96.3485L100.546 98.1464L102.553 99.7284L104.202 100.663H106.352L107.141 101.526L108.718 102.677L110.366 103.684L112.302 104.762L114.094 105.118L114.452 106.413L114.237 107.703L113.52 108.998L113.018 110.148L113.592 111.658L114.595 112.378L115.097 113.672L115.384 114.966L115.671 116.836L115.957 118.918L116.602 120.14L118.179 121.503L119.756 122.006L120.617 121.431L122.194 121.503L123.269 121.934L124.774 122.006L126.494 121.934L127.068 122.797L127.211 124.092L126.064 125.099L125.348 125.818L124.487 127.04L124.201 128.191L124.559 129.342L125.204 130.564L126.136 131.355L126.57 131.567L126.064 132.381L125.038 132.347L124.578 132.555L124.389 132.896L124.046 133.202L123.499 133.168L122.986 133.1L122.541 132.653L121.941 132.192L120.269 130.534L119.711 130.496L119.768 131.132L121.496 132.809L121.522 133.494L121.303 133.694L121.013 133.887L120.435 133.868L120.107 133.675L119.685 133.214L119.319 132.771L119.013 132.615L118.858 132.055L118.398 131.594L117.878 131.208L117.742 130.803L117.357 130.553L116.817 130.477L116.531 130.227L116.436 129.898L116.263 129.455L116.014 129.149L115.474 128.899H114.878L114.573 128.725L114.441 128.524L113.939 128.471L113.803 128.721L113.611 128.952L113.456 129.145H113.052L112.747 128.914L112.075 128.585L111.287 128.123L110.845 127.987L110.276 127.491L109.083 126.798L108.065 126.257L106.643 125.409L105.239 124.542L104.22 124.001L103.953 123.906L103.888 124.046L102.896 125.682L101.878 127.415L100.61 129.383L99.7838 130.965L98.6294 132.99L98.2446 133.009L95.5169 131.257L92.9817 129.561L88.926 126.938L85.9079 124.993L85.1194 124.395L84.6403 123.99L83.6594 123.604L82.969 123.18L82.5842 122.93L82.7389 122.544L83.3161 121.753L85.3722 118.388L85.6589 117.983L86.5229 117.847L87.2736 117.964L88.0244 118.35L90.7143 120.239L90.7105 120.504L90.5219 120.527L90.5785 121.219L90.8841 121.469L91.2877 121.681L91.9216 122.048L92.8421 122.067L93.1326 121.942L93.4759 121.624L93.706 121.219L94.0531 121.125L94.4191 121.28V122.57L95.1812 123.123L95.5433 123.331L96.1658 123.282L96.3771 123.032L96.7808 123.051L97.1844 123.32L97.5315 123.437L98.2031 123.418L98.6256 122.491L99.0293 121.624L99.2783 121.2L99.3537 120.754L95.3094 118.187L92.5742 116.378L93.2835 115.069L93.4193 114.051L93.5363 113.377L93.4004 113.233L92.9515 112.964L92.5893 112.843L92.1404 112.393L91.7216 111.734L90.8313 110.606L90.1107 110.076L90.0541 109.179L89.5636 108.487L89.0732 107.559L88.8996 106.545L88.4658 105.648L88.0923 105.387L87.632 104.895L87.085 104.373L86.4248 103.952L85.8287 103.744L84.8101 103.623H83.8254L83.0746 103.68L82.1805 103.65L81.4599 103.824L81.5165 104.172L81.69 104.433L82.5276 104.664L83.0407 104.513L84.4818 104.611L85.2364 104.921L85.9305 105.073L86.0739 105.5L86.9643 106.114L87.1453 106.564L86.9114 106.95L86.9416 107.472L87.3151 107.646L87.2585 107.821L87.1718 108.282L87.8357 108.57L88.1225 109.323L88.3828 110.19L88.8695 110.992L88.96 111.696L87.4321 111.727L86.1343 111.901L84.3762 111.931L82.5578 111.439L80.596 110.86L78.8945 110.542L76.7893 110.08L75.1746 109.618L73.6165 109.096L72.7224 108.748L71.6245 108.718L71.451 108.979H70.9304L70.67 109.297L70.4663 109.471V108.835L70.753 106.462L70.9832 104.002L71.1265 102.987L71.3567 101.481L71.8169 100.584L72.9865 99.4786L73.8919 98.2221L74.0843 97.5711L73.7448 97.3515L73.2543 97.2948L72.5639 97.3515L72.0735 97.6392L71.8018 98.2788L71.1718 99.543L69.9683 100.595L69.708 100.97L69.4779 101.954L69.2477 103.574L69.0742 104.327L69.0176 105.307L68.9874 105.69L68.8139 106.064L68.7988 107.336L68.6969 107.908L68.4932 108.43L68.4064 108.699L67.5387 108.18L66.3579 107.37L65.0299 106.185L63.7623 105.171L62.9247 104.562L62.0004 104.475L61.2798 104.357L60.5593 104.301L59.6953 104.331L59.3218 104.88L58.888 105.084L58.0504 105.171L57.8203 105.606L57.7335 106.36L57.5034 106.969L57.4355 108.165L57.4204 108.309L57.4128 108.385L57.0431 108.755H54.5909L54.5343 107.684L54.1306 107.223L53.2667 107.079L52.6329 106.617L51.9123 105.981L51.5501 105.379L51.1653 105.054L50.0108 104.849L49.577 105.137L49.0299 105.311L48.5697 105.86L48.3659 106.583L48.1622 107.192L48.1924 107.715L48.2792 108.263L48.5923 108.608L48.5584 109.819L47.7887 109.914L47.2115 110.057L46.0156 110.326L45.1365 110.315L44.2499 110.595L42.6541 110.546L42.4504 108.608L42.1033 107.045L42.0165 105.686L41.8732 104.759L41.5261 104.41L41.3261 104.119L40.9526 103.744L40.4622 103.918L40.2886 104.441L40.0019 104.815V105.743L40.1755 106.696L40.2622 108.521L40.4924 111.56L40.0321 111.878L39.4662 112.007L39.1681 112.196L38.5607 112.079L35.6746 108.865L35.4709 107.215L35.1502 105.909L34.0298 105.883L32.6376 106.178L32.3283 106.575L32.4452 108.252L32.7319 110.338L35.3841 113.259V113.664L34.3693 114.524L33.6223 115.25L32.1208 116.409L30.9663 117.536L30.159 116.552L29.6119 115.886L29.1781 115.799L28.4839 116.321L27.1559 117.48L26.8692 116.787L25.7261 115.421L25.3149 115.167L24.4886 114.304L23.9491 113.54L23.5342 113.093L23.4059 112.616L23.8812 112.234L24.1981 111.851L24.2283 111.469L24.085 111.057L23.4662 110.383L22.9569 109.649H22.3533L22.0364 109.936L21.561 110.254L21.2441 110.224L20.55 109.77L20.3349 109.338L20.799 109.134L22.2929 107.476L23.5643 105.879L24.5188 105.016L24.9338 104.6L25.3149 104.123L25.4431 103.26L24.998 102.877L24.5226 102.749L24.0472 102.843L23.6322 103.002L23.0286 103.578L22.3608 104.217L21.6931 105.111L21.1536 105.493L20.7084 106.068L20.4556 106.386L20.2029 106.609H19.8218L19.3767 106.193L18.9315 105.652L18.4561 105.235L18.3618 104.759L18.6485 104.119L18.9994 103.767L19.6672 103.192L20.3991 102.427L21.4818 101.012L21.5422 100.561L21.1234 100.111L20.5839 99.543L19.9878 99.2705L19.2597 99.7966L18.3958 100.644L17.1885 101.761L15.9473 103.086L15.3512 102.575L14.6608 101.916L13.9704 101.496L13.4007 100.864L12.6236 100.353L10.1864 102.461L9.83555 102.813L10.3449 103.229L12.2802 104.948L12.4047 105.372L15.653 111.272L15.8152 112.196L18.2335 116.473L19.5049 118.918L20.4255 120.674L20.7461 121.276L20.8103 122.169L20.5236 122.775L19.8332 123.047L18.6787 123.221L13.3366 123.316L8.24725 123.229L5.79878 123.062L3.92753 122.377L2.17323 121.242L0.996153 120.19L0.328389 118.816L0.169936 117.317L0.0944824 115.746L0.252935 113.449L0.626431 112.26L0.671703 111.916L1.11688 110.954L1.50547 109.724L1.89405 108.43L2.46373 107.109L2.97304 105.728L3.51253 104.225L4.02184 102.666L4.4972 101.557L4.78393 100.436L7.66248 92.8286L8.90369 89.3805L9.9525 86.8901L10.0166 86.0801L10.7787 84.2293L11.1598 82.8251L11.6351 81.5798L11.4427 80.8153L11.1258 79.6344L11.2541 78.6125L11.6691 78.0372L12.1784 77.6852L12.9442 77.0644L13.4837 77.1099L13.6761 76.1863L14.2043 75.0774L14.6004 73.904L14.7476 73.5899L14.9475 73.219L15.4795 72.8897L15.9511 72.4317L16.6113 71.2773L17.0451 70.5128L17.4828 69.6763L17.9544 68.8361L18.5693 67.7839L18.9692 66.8376L19.5879 65.6378L20.0218 64.983L20.0935 64.5099L20.4217 64.1087L20.7839 64.1466H21.1989L21.2215 63.7454L21.9308 63.4766L22.3458 63.2722L22.6438 63.2193V62.7764L22.9494 62.4888L23.1871 61.5085L23.5492 60.9635L23.7303 60.2368L24.1302 59.5441L25.2205 57.5041L25.3149 57.0726L25.3337 56.3042L25.5789 55.9371L25.8317 55.6835L26.2316 55.5738L26.6693 55.5056L26.922 55.252L26.9522 54.8054L27.2465 54.3739L27.3332 54.0068L27.8727 53.9425L28.1859 53.3899L28.1255 53.0189L28.1896 52.3187L28.367 51.9743L28.3481 51.5845L28.3783 48.2651L28.5707 47.8828L28.665 47.0842L28.8385 47.0615V46.5505L28.9819 46.0396L29.046 45.487L29.1404 45.0101L29.2686 44.9155L29.2384 44.1812L29.046 43.9579L28.8876 43.5113L28.9178 42.8716L29.2045 42.7126L29.744 42.584L30.159 41.8838L30.4344 41.7626L30.5061 41.3274L30.4721 40.7104L30.3212 40.3622L30.4155 39.9799L31.2757 39.8853L31.6907 39.7907L31.8416 40.3282L31.4379 40.4606L31.3096 41.1608L31.5021 41.5431L32.2 41.5128L32.5433 41.1116L32.581 40.7483L32.6225 40.4266L33.079 40.4303L33.3318 40.718L33.7468 40.559L34.0335 40.3054L34.3316 39.9724L34.3542 39.7339L34.2259 39.3176L34.0335 38.8407L33.8751 38.3638L33.5582 38.2048L33.6525 37.9172L34.0033 37.7885L35.3087 37.6598L35.2785 37.0845L34.9616 36.9899L34.6447 36.7666L34.6937 36.2783L34.656 35.915L34.6937 35.5516L34.7051 35.2375L35.2785 35.2072L35.4898 34.8249L35.6709 34.6092L35.4709 34.3064L35.154 34.0831L35.3125 33.89L35.5652 33.9203L35.7878 34.0793L36.4556 34.0149L36.5499 33.3147L36.8027 32.4858L36.4858 32.1679L35.9614 32.4593V31.6607L36.2632 31.4677L36.2519 30.7145L36.3575 30.3171L36.6744 30.0635L37.312 29.9689L37.5648 29.6509L37.81 29.2952L37.9798 28.9469L38.0099 28.5306L38.2967 28.3376L38.6136 27.9856L38.9644 28.0159L39.3153 28.3338L39.9529 28.1105L40.3037 28.0461L40.7791 27.6639L41.1111 27.1037L41.4016 26.6306L41.9222 26.3884L42.2731 26.324L42.59 26.3884L43.0993 26.6419L43.8953 26.835V25.8698L44.5329 25.7752L44.8838 26.0288L45.5213 26.0591L45.7439 25.3891L45.9401 25.0182L46.4117 24.9085L46.8267 25.0674L47.4643 24.8138H48.1622L48.747 24.4429L49.7166 23.9736L50.5616 23.2544L51.4897 22.4899L52.8403 21.3469L53.4742 20.4574L54.3192 20.0751L55.1455 19.9464L55.5265 19.1175L56.0999 18.9586L56.0698 18.1297L56.5187 17.4938L57.7863 16.6044L58.8389 16.0253L59.9519 15.132L60.9592 14.3637L61.8457 14.1518L62.9738 13.9852L64.4376 13.5689L65.2638 13.1866L66.7917 13.092L67.1728 13.3796L67.1426 14.1442L67.1992 14.833V14.833Z" fill="#757575"/>
</svg>
